<svg xmlns="http://www.w3.org/2000/svg" xmlns:xlink="http://www.w3.org/1999/xlink" viewBox="0 0 125.025 42.986">
  <defs>
    <style>
      .cls-1 {
        fill: #1d1d1b;
        stroke: #fff;
        stroke-miterlimit: 10;
      }

      .cls-2 {
        fill: #fff;
      }

      .cls-3 {
        fill: url(#linear-gradient);
      }

      .cls-4 {
        fill: url(#linear-gradient-2);
      }

      .cls-5 {
        fill: url(#linear-gradient-3);
      }

      .cls-6 {
        fill: url(#linear-gradient-4);
      }
    </style>
    <linearGradient id="linear-gradient" x1="2.961" y1="-5.85" x2="3.148" y2="-5.85" gradientUnits="objectBoundingBox">
      <stop offset="0" stop-color="#63be6b"/>
      <stop offset="0.51" stop-color="#5bbc6a"/>
      <stop offset="1" stop-color="#4ab96a"/>
    </linearGradient>
    <linearGradient id="linear-gradient-2" x1="4.31" y1="-3.844" x2="4.496" y2="-3.844" gradientUnits="objectBoundingBox">
      <stop offset="0" stop-color="#3ec6f2"/>
      <stop offset="1" stop-color="#45afe3"/>
    </linearGradient>
    <linearGradient id="linear-gradient-3" x1="2.755" y1="-8.468" x2="2.942" y2="-8.468" gradientUnits="objectBoundingBox">
      <stop offset="0" stop-color="#faa51a"/>
      <stop offset="0.39" stop-color="#fab716"/>
      <stop offset="0.74" stop-color="#fac412"/>
      <stop offset="1" stop-color="#fac80f"/>
    </linearGradient>
    <linearGradient id="linear-gradient-4" x1="2.858" y1="-6.506" x2="3.045" y2="-6.506" gradientUnits="objectBoundingBox">
      <stop offset="0" stop-color="#ec3b50"/>
      <stop offset="1" stop-color="#e7515b"/>
    </linearGradient>
  </defs>
  <g id="btn_googleplay" transform="translate(0.5 0.5)">
    <path id="background" class="cls-1" d="M10.038,5H123.987a5.042,5.042,0,0,1,5.038,5.038V41.95a5.042,5.042,0,0,1-5.036,5.036H10.04A5.042,5.042,0,0,1,5,41.948V10.036A5.042,5.042,0,0,1,10.038,5Z" transform="translate(-5 -5)"/>
    <path id="Fill-1" class="cls-2" d="M1562.9,445.98l-.932.881c-.219.118-.428.261-.638.353a4.5,4.5,0,0,1-1.889.37,4.141,4.141,0,0,1-2.587-.764,5.073,5.073,0,0,1-1.982-4.123,4.42,4.42,0,0,1,4.459-4.516,3.774,3.774,0,0,1,2,.546,3.233,3.233,0,0,1,1.36,1.94l-4.568,1.856-1.495.116c.487,2.485,2.158,3.93,4.006,3.93a4.785,4.785,0,0,0,2.233-.613s.126-.067.034.025Zm-2.788-4.988c.37-.134.554-.252.554-.529a1.926,1.926,0,0,0-1.906-1.7c-.764,0-2.208.613-2.208,2.738,0,.336.042.688.059,1.042Z" transform="translate(-1477.951 -416.682)"/>
    <path id="Fill-2" class="cls-2" d="M1460.1,357.4c0,.756.134.873.772.932.336.042.664.059.993.092l-.714.428h-3.419c.447-.588.529-.645.529-1.033v-.437l-.008-11.588h-1.511l1.452-.705h2.771a1.337,1.337,0,0,0-.856,1.241L1460.1,357.4" transform="translate(-1384.691 -328.212)"/>
    <path id="Fill-3" class="cls-2" d="M1279.314,443.992a3.195,3.195,0,0,1-.252,5.4,1.38,1.38,0,0,0-.546.957,1.085,1.085,0,0,0,.5.84l.695.546a3.4,3.4,0,0,1,1.621,2.73c0,1.831-1.763,3.686-5.089,3.686-2.8,0-4.156-1.343-4.156-2.788a2.789,2.789,0,0,1,1.495-2.377,8.293,8.293,0,0,1,3.694-.9,2.072,2.072,0,0,1-.579-1.327,1.839,1.839,0,0,1,.193-.764c-.21.017-.428.042-.621.042a3.071,3.071,0,0,1-3.208-3.065,3.5,3.5,0,0,1,1.241-2.611,5.244,5.244,0,0,1,3.46-1.075h3.989l-1.241.705Zm-1.36,8.641a2.432,2.432,0,0,0-.447-.025,7.723,7.723,0,0,0-2.049.319,2.226,2.226,0,0,0-1.679,2.049c0,1.41,1.344,2.427,3.434,2.427,1.873,0,2.864-.915,2.864-2.141,0-1.025-.645-1.562-2.125-2.63Zm.546-3.762a1.963,1.963,0,0,0,.487-1.419c0-1.4-.823-3.577-2.427-3.577a1.8,1.8,0,0,0-1.352.645,2.241,2.241,0,0,0-.42,1.436c0,1.3.756,3.46,2.41,3.46A1.935,1.935,0,0,0,1278.5,448.871Z" transform="translate(-1209.205 -421.538)"/>
    <path id="Fill-4" class="cls-2" d="M1084.148,447.555a4.6,4.6,0,0,1-4.728-4.635,4.832,4.832,0,0,1,5.021-4.77,4.567,4.567,0,0,1,4.635,4.635A4.766,4.766,0,0,1,1084.148,447.555Zm2.41-1.588a3.575,3.575,0,0,0,.588-2.184c0-1.737-.814-5.047-3.233-5.047a2.687,2.687,0,0,0-1.755.672,3.01,3.01,0,0,0-.9,2.4c0,1.948.949,5.156,3.309,5.156a2.456,2.456,0,0,0,1.99-1Z" transform="translate(-1026.097 -416.653)"/>
    <path id="Fill-5" class="cls-2" d="M876.028,447.555a4.6,4.6,0,0,1-4.728-4.635,4.833,4.833,0,0,1,5.022-4.77,4.567,4.567,0,0,1,4.635,4.635A4.766,4.766,0,0,1,876.028,447.555Zm2.41-1.588a3.576,3.576,0,0,0,.588-2.184c0-1.737-.823-5.047-3.233-5.047a2.673,2.673,0,0,0-1.755.672,2.983,2.983,0,0,0-.9,2.4c0,1.948.957,5.156,3.308,5.156a2.461,2.461,0,0,0,1.99-1Z" transform="translate(-828.306 -416.653)"/>
    <path id="Fill-6" class="cls-2" d="M604.738,374.615l-2.61.6a18.922,18.922,0,0,1-3.014.319,6.516,6.516,0,0,1-6.953-6.659c0-3.56,2.721-6.869,7.373-6.869a10.36,10.36,0,0,1,2.793.387,7.1,7.1,0,0,1,2.41,1.141l-1.517,1.453-.64.145.454-.731a5.214,5.214,0,0,0-3.9-1.73c-2.878,0-5.055,2.2-5.055,5.416a6.471,6.471,0,0,0,6.458,6.7,5.459,5.459,0,0,0,2.318-.453v-2.966l-2.755.151,1.461-.79h3.871l-.469.462a.449.449,0,0,0-.185.294c-.017.168-.033.695-.033.89v2.233" transform="translate(-563.02 -344.292)"/>
    <path id="Fill-7" class="cls-2" d="M1811.343,446.034V451h-.983v-12.62h.983v1.436a3.9,3.9,0,0,1,3.166-1.663c2.435,0,4.081,1.856,4.081,4.787,0,2.914-1.638,4.8-4.081,4.8A3.9,3.9,0,0,1,1811.343,446.034Zm6.239-3.023c0-2.233-1.15-3.939-3.2-3.939a3.913,3.913,0,0,0-3.015,1.889v4.081a3.947,3.947,0,0,0,3.015,1.923C1816.432,446.966,1817.582,445.245,1817.582,443.011Z" transform="translate(-1720.761 -416.653)"/>
    <path id="Fill-8" class="cls-2" d="M2003.25,372.16h1.008v12.68h-1.008Z" transform="translate(-1904.078 -353.938)"/>
    <path id="Fill-9" class="cls-2" d="M2225.875,453.346a2.361,2.361,0,0,0,.8.151c.6,0,1.016-.244,1.394-1.117l.714-1.629-3.871-9.212h1.1l3.317,7.986,3.292-7.986h1.108l-4.719,11.143a2.412,2.412,0,0,1-2.318,1.7,3.839,3.839,0,0,1-.982-.134l.168-.907" transform="translate(-2114.738 -419.875)"/>
    <path id="Fill-10" class="cls-2" d="M2060.526,447.528q-.1-.479-.151-.831a4.993,4.993,0,0,1-.05-.714,3.851,3.851,0,0,1-1.436,1.241,3.962,3.962,0,0,1-2,.487,3.187,3.187,0,0,1-2.242-.722,2.514,2.514,0,0,1-.8-1.957,2.323,2.323,0,0,1,1.159-2.007,5.34,5.34,0,0,1,3.007-.773h2.3V441.11a1.907,1.907,0,0,0-.672-1.545,2.836,2.836,0,0,0-1.889-.563,3.015,3.015,0,0,0-1.814.512,1.568,1.568,0,0,0-.688,1.285h-1.008l-.017-.05a2.13,2.13,0,0,1,.957-1.83,4.119,4.119,0,0,1,2.63-.79,4.074,4.074,0,0,1,2.6.781,2.664,2.664,0,0,1,.982,2.225v4.534a6.967,6.967,0,0,0,.059.949,6.427,6.427,0,0,0,.193.907Zm-3.51-.664a3.716,3.716,0,0,0,2.058-.563,2.8,2.8,0,0,0,1.241-1.444v-1.771H2058a3.75,3.75,0,0,0-2.192.6,1.712,1.712,0,0,0-.865,1.436,1.588,1.588,0,0,0,.554,1.268A2.284,2.284,0,0,0,2057.015,446.864Z" transform="translate(-1952.167 -416.634)"/>
    <path id="Path_9734" data-name="Path 9734" class="cls-2" d="M580.21,153.139v-4.234h1.379a2.192,2.192,0,0,1,1.055.253,1.8,1.8,0,0,1,.728.716,2.11,2.11,0,0,1,.261,1.054v.195a2.116,2.116,0,0,1-.257,1.049,1.786,1.786,0,0,1-.724.712,2.2,2.2,0,0,1-1.055.256Zm.923-3.528v2.829h.447a1.029,1.029,0,0,0,.827-.334,1.452,1.452,0,0,0,.292-.957v-.224a1.477,1.477,0,0,0-.283-.979,1.028,1.028,0,0,0-.827-.335Z" transform="translate(-551.663 -141.763)"/>
    <path id="Path_9735" data-name="Path 9735" class="cls-2" d="M671.143,153.144h-.923V148.91h.923Z" transform="translate(-637.206 -141.768)"/>
    <path id="Path_9736" data-name="Path 9736" class="cls-2" d="M711.154,150.9a.439.439,0,0,0-.185-.38,2.487,2.487,0,0,0-.665-.279,4.813,4.813,0,0,1-.759-.289,1.174,1.174,0,0,1-.763-1.05.984.984,0,0,1,.2-.612,1.326,1.326,0,0,1,.587-.42,2.326,2.326,0,0,1,.86-.151,2.118,2.118,0,0,1,.855.162,1.345,1.345,0,0,1,.583.464,1.165,1.165,0,0,1,.208.68h-.923a.556.556,0,0,0-.194-.452.827.827,0,0,0-.546-.161.887.887,0,0,0-.526.135.419.419,0,0,0-.188.356.409.409,0,0,0,.22.347,2.522,2.522,0,0,0,.645.262,2.845,2.845,0,0,1,1.147.555,1.077,1.077,0,0,1,.36.826,1,1,0,0,1-.434.863,2.007,2.007,0,0,1-1.184.313,2.4,2.4,0,0,1-.943-.179,1.483,1.483,0,0,1-.645-.49,1.208,1.208,0,0,1-.223-.721h.926q0,.7.886.7a.9.9,0,0,0,.514-.127A.4.4,0,0,0,711.154,150.9Z" transform="translate(-673.725 -140.639)"/>
    <path id="Path_9737" data-name="Path 9737" class="cls-2" d="M797.663,151.643v1.492h-.923V148.9h1.747a2.125,2.125,0,0,1,.887.174,1.34,1.34,0,0,1,.589.5,1.325,1.325,0,0,1,.206.732,1.186,1.186,0,0,1-.451.981,1.954,1.954,0,0,1-1.247.359Zm0-.707h.824a.842.842,0,0,0,.558-.163.575.575,0,0,0,.192-.465.677.677,0,0,0-.194-.5.75.75,0,0,0-.535-.2h-.844Z" transform="translate(-757.447 -141.759)"/>
    <path id="Path_9738" data-name="Path 9738" class="cls-2" d="M886.023,150a2.439,2.439,0,0,1-.234,1.1,1.694,1.694,0,0,1-.669.727,2.074,2.074,0,0,1-1.991,0,1.713,1.713,0,0,1-.676-.723,2.363,2.363,0,0,1-.243-1.08v-.209a2.426,2.426,0,0,1,.238-1.1,1.712,1.712,0,0,1,.673-.73,2.072,2.072,0,0,1,1.99,0,1.712,1.712,0,0,1,.673.73,2.419,2.419,0,0,1,.238,1.1Zm-.935-.192a1.706,1.706,0,0,0-.252-1.012.921.921,0,0,0-1.436-.006,1.687,1.687,0,0,0-.255,1V150a1.727,1.727,0,0,0,.252,1.006.839.839,0,0,0,.726.36.827.827,0,0,0,.714-.345,1.717,1.717,0,0,0,.252-1Z" transform="translate(-838.674 -140.647)"/>
    <path id="Path_9739" data-name="Path 9739" class="cls-2" d="M982.561,153.144h-.923l-1.8-2.786v2.786h-.923V148.91h.923l1.8,2.792V148.91h.92Z" transform="translate(-930.585 -141.768)"/>
    <path id="Path_9740" data-name="Path 9740" class="cls-2" d="M1076.925,153.144H1076V148.91h.923Z" transform="translate(-1022.847 -141.768)"/>
    <path id="Path_9741" data-name="Path 9741" class="cls-2" d="M1118.21,153.144V148.91h1.568a2.151,2.151,0,0,1,1.236.295.99.99,0,0,1,.421.865.92.92,0,0,1-.169.548.969.969,0,0,1-.47.347.954.954,0,0,1,.543.329.938.938,0,0,1,.2.6,1.09,1.09,0,0,1-.412.925,1.933,1.933,0,0,1-1.175.32Zm.923-2.46h.682q.7-.012.7-.527a.475.475,0,0,0-.177-.414.971.971,0,0,0-.558-.127h-.645Zm0,.616v1.141h.79a.786.786,0,0,0,.509-.149.491.491,0,0,0,.183-.406q0-.582-.637-.59Z" transform="translate(-1062.962 -141.768)"/>
    <path id="Path_9742" data-name="Path 9742" class="cls-2" d="M1206.463,152.443h1.959v.7h-2.882V148.91h.923Z" transform="translate(-1145.958 -141.768)"/>
    <path id="Path_9743" data-name="Path 9743" class="cls-2" d="M1283.3,151.309h-1.772v1.134h2.079v.7h-3V148.91h3v.706h-2.074v1.009h1.772Z" transform="translate(-1217.303 -141.768)"/>
    <path id="Path_9744" data-name="Path 9744" class="cls-2" d="M1398.984,151.309h-1.772v1.134h2.079v.7h-3V148.91h3v.706h-2.073v1.009h1.772Z" transform="translate(-1327.241 -141.768)"/>
    <path id="Path_9745" data-name="Path 9745" class="cls-2" d="M1477.643,153.144h-.923l-1.8-2.786v2.786H1474V148.91h.923l1.8,2.792V148.91h.92Z" transform="translate(-1401.095 -141.768)"/>
    <path id="Path_9746" data-name="Path 9746" class="cls-3" d="M94.49,296.894l-11.124-6.358a.456.456,0,0,0-.676.393s0,.586.009,1.551l8.1,8.1Z" transform="translate(-78.834 -276.311)"/>
    <path id="Path_9747" data-name="Path 9747" class="cls-4" d="M82.88,330.79c.013,3.481.056,11.931.072,16.14l8.035-8.035Z" transform="translate(-79.015 -314.621)"/>
    <path id="Path_9748" data-name="Path 9748" class="cls-5" d="M256.109,423.379l-6.366-3.639-3.693,3.688,4.166,4.166,5.9-3.436a.45.45,0,0,0,.226-.388A.456.456,0,0,0,256.109,423.379Z" transform="translate(-234.087 -399.157)"/>
    <path id="Path_9749" data-name="Path 9749" class="cls-6" d="M84.24,502.22c.009,1.5.013,2.462.013,2.462a.441.441,0,0,0,.225.388.45.45,0,0,0,.451,0l11.514-6.714-4.166-4.166Z" transform="translate(-80.307 -469.912)"/>
  </g>
</svg>
