<svg xmlns="http://www.w3.org/2000/svg" viewBox="0 0 125.025 42.986">
  <defs>
    <style>
      .cls-1 {
        fill: #1d1d1b;
        stroke: #fff;
        stroke-miterlimit: 10;
      }

      .cls-2 {
        fill: #fff;
      }
    </style>
  </defs>
  <g id="btn_appstore" transform="translate(0.5 0.5)">
    <path id="background" class="cls-1" d="M10.038,5H123.987a5.042,5.042,0,0,1,5.038,5.038V41.95a5.042,5.042,0,0,1-5.036,5.036H10.04A5.042,5.042,0,0,1,5,41.948V10.036A5.042,5.042,0,0,1,10.038,5Z" transform="translate(-5 -5)"/>
    <path id="Path_9712" data-name="Path 9712" class="cls-2" d="M121,262.823a6.483,6.483,0,0,1,3.093-5.447,6.641,6.641,0,0,0-5.236-2.829c-2.2-.232-4.339,1.318-5.459,1.318-1.144,0-2.873-1.3-4.735-1.258a6.972,6.972,0,0,0-5.868,3.579c-2.538,4.393-.645,10.848,1.787,14.4,1.216,1.741,2.637,3.681,4.5,3.613,1.82-.074,2.5-1.159,4.7-1.159,2.176,0,2.814,1.159,4.711,1.115,1.953-.03,3.183-1.747,4.356-3.5a14.428,14.428,0,0,0,1.988-4.061A6.272,6.272,0,0,1,121,262.823Z" transform="translate(-96.795 -242.14)"/>
    <path id="Path_9713" data-name="Path 9713" class="cls-2" d="M338.523,120.219a6.389,6.389,0,0,0,1.463-4.579,6.507,6.507,0,0,0-4.208,2.177,6.08,6.08,0,0,0-1.5,4.41A5.375,5.375,0,0,0,338.523,120.219Z" transform="translate(-317.904 -110.149)"/>
    <path id="Path_9714" data-name="Path 9714" class="cls-2" d="M634.991,400.832h-2.543l-1.393-4.377h-4.844l-1.327,4.377H622.41l4.8-14.9h2.963Zm-4.356-6.213-1.26-3.891q-.2-.6-.751-2.808h-.045q-.222.951-.708,2.808l-1.238,3.891Z" transform="translate(-591.768 -367.025)"/>
    <path id="Path_9715" data-name="Path 9715" class="cls-2" d="M925.955,470.682a6.089,6.089,0,0,1-1.489,4.333,4.365,4.365,0,0,1-3.312,1.415,3.32,3.32,0,0,1-3.069-1.524v5.639H915.7V468.973q0-1.722-.088-3.532h2.1l.133,1.7h.045a4.247,4.247,0,0,1,6.8-.422A5.92,5.92,0,0,1,925.955,470.682Zm-2.432.087a4.436,4.436,0,0,0-.708-2.588,2.446,2.446,0,0,0-2.078-1.061,2.491,2.491,0,0,0-1.6.586,2.72,2.72,0,0,0-.94,1.539,3.113,3.113,0,0,0-.111.727v1.793a2.874,2.874,0,0,0,.719,1.98,2.374,2.374,0,0,0,1.868.807,2.443,2.443,0,0,0,2.1-1.039,4.589,4.589,0,0,0,.752-2.745Z" transform="translate(-870.417 -442.38)"/>
    <path id="Path_9716" data-name="Path 9716" class="cls-2" d="M1174.947,470.672a6.089,6.089,0,0,1-1.489,4.333,4.369,4.369,0,0,1-3.314,1.415,3.319,3.319,0,0,1-3.068-1.524v5.639h-2.388V468.964q0-1.722-.088-3.532h2.1l.133,1.7h.045a4.248,4.248,0,0,1,6.8-.422A5.967,5.967,0,0,1,1174.947,470.672Zm-2.432.087a4.428,4.428,0,0,0-.709-2.588,2.444,2.444,0,0,0-2.076-1.061,2.5,2.5,0,0,0-1.6.586,2.693,2.693,0,0,0-.938,1.539,3.182,3.182,0,0,0-.112.727v1.793a2.887,2.887,0,0,0,.718,1.98,2.375,2.375,0,0,0,1.87.807,2.439,2.439,0,0,0,2.1-1.039,4.607,4.607,0,0,0,.752-2.745Z" transform="translate(-1107.05 -442.37)"/>
    <path id="Path_9717" data-name="Path 9717" class="cls-2" d="M1474.522,392.462a3.974,3.974,0,0,1-1.325,3.1,5.874,5.874,0,0,1-4.059,1.3,7.088,7.088,0,0,1-3.859-.928l.552-1.99a6.636,6.636,0,0,0,3.449.93,3.247,3.247,0,0,0,2.1-.608,1.986,1.986,0,0,0,.754-1.624,2.082,2.082,0,0,0-.62-1.526,5.742,5.742,0,0,0-2.056-1.149q-3.914-1.46-3.915-4.268a3.762,3.762,0,0,1,1.382-3.007,5.482,5.482,0,0,1,3.66-1.173,7.237,7.237,0,0,1,3.383.708l-.6,1.946a5.916,5.916,0,0,0-2.863-.685,2.906,2.906,0,0,0-1.975.619,1.774,1.774,0,0,0-.6,1.35,1.826,1.826,0,0,0,.687,1.459,7.763,7.763,0,0,0,2.165,1.149,7.34,7.34,0,0,1,2.829,1.812A3.763,3.763,0,0,1,1474.522,392.462Z" transform="translate(-1392.807 -362.834)"/>
    <path id="Path_9718" data-name="Path 9718" class="cls-2" d="M1685.751,420.151h-2.63v5.218q0,1.99,1.393,1.989a4.176,4.176,0,0,0,1.061-.111l.066,1.813a5.41,5.41,0,0,1-1.857.265,2.86,2.86,0,0,1-2.212-.864,4.219,4.219,0,0,1-.794-2.9v-5.417h-1.568v-1.792h1.568v-1.967l2.344-.708v2.675h2.63v1.8Z" transform="translate(-1596.12 -395.298)"/>
    <path id="Path_9719" data-name="Path 9719" class="cls-2" d="M1848.156,470.83a5.9,5.9,0,0,1-1.415,4.07,5.046,5.046,0,0,1-3.935,1.638,4.811,4.811,0,0,1-3.772-1.568,5.714,5.714,0,0,1-1.4-3.957,5.844,5.844,0,0,1,1.448-4.089,5.017,5.017,0,0,1,3.9-1.593,4.906,4.906,0,0,1,3.8,1.57A5.619,5.619,0,0,1,1848.156,470.83Zm-2.475.055a4.813,4.813,0,0,0-.639-2.535,2.362,2.362,0,0,0-2.146-1.28,2.4,2.4,0,0,0-2.189,1.28,4.889,4.889,0,0,0-.641,2.581,4.807,4.807,0,0,0,.641,2.536,2.448,2.448,0,0,0,4.314-.021A4.831,4.831,0,0,0,1845.681,470.885Z" transform="translate(-1746.678 -442.484)"/>
    <path id="Path_9720" data-name="Path 9720" class="cls-2" d="M2096.031,467.531a4.151,4.151,0,0,0-.752-.066,2.253,2.253,0,0,0-1.947.952,3.579,3.579,0,0,0-.6,2.122v5.637h-2.388v-7.362q0-1.856-.069-3.383h2.079l.087,2.056h.067a3.686,3.686,0,0,1,1.194-1.7,2.883,2.883,0,0,1,1.726-.575,3.8,3.8,0,0,1,.6.044v2.277Z" transform="translate(-1986.789 -442.369)"/>
    <path id="Path_9721" data-name="Path 9721" class="cls-2" d="M2238.429,469.925a5.63,5.63,0,0,1-.087,1.083h-7.162a3.111,3.111,0,0,0,1.039,2.432,3.561,3.561,0,0,0,2.343.75,7.957,7.957,0,0,0,2.9-.508l.374,1.657a8.96,8.96,0,0,1-3.6.664,5.218,5.218,0,0,1-3.926-1.469,5.417,5.417,0,0,1-1.426-3.946,6.158,6.158,0,0,1,1.328-4.045,4.573,4.573,0,0,1,3.757-1.723,4,4,0,0,1,3.517,1.723A5.818,5.818,0,0,1,2238.429,469.925Zm-2.277-.619a3.238,3.238,0,0,0-.463-1.836,2.086,2.086,0,0,0-1.9-1,2.264,2.264,0,0,0-1.9.973,3.566,3.566,0,0,0-.706,1.857h4.972Z" transform="translate(-2118.51 -442)"/>
    <path id="Path_9722" data-name="Path 9722" class="cls-2" d="M644.76,198.858v-4.234h1.378a2.184,2.184,0,0,1,1.056.252,1.8,1.8,0,0,1,.728.715,2.11,2.11,0,0,1,.262,1.054v.2a2.115,2.115,0,0,1-.257,1.05,1.787,1.787,0,0,1-.722.713,2.21,2.21,0,0,1-1.055.256Zm.923-3.527v2.826h.447a1.029,1.029,0,0,0,.827-.335,1.453,1.453,0,0,0,.292-.957v-.224a1.475,1.475,0,0,0-.283-.978,1.025,1.025,0,0,0-.827-.333Z" transform="translate(-613.009 -185.213)"/>
    <path id="Path_9723" data-name="Path 9723" class="cls-2" d="M735.683,198.864h-.923V194.63h.923Z" transform="translate(-698.543 -185.219)"/>
    <path id="Path_9724" data-name="Path 9724" class="cls-2" d="M775.58,196.7a.439.439,0,0,0-.185-.38,2.478,2.478,0,0,0-.665-.279,4.93,4.93,0,0,1-.759-.289,1.176,1.176,0,0,1-.763-1.05.984.984,0,0,1,.2-.61,1.333,1.333,0,0,1,.588-.42,2.322,2.322,0,0,1,.86-.149,2.109,2.109,0,0,1,.855.164,1.344,1.344,0,0,1,.583.464,1.167,1.167,0,0,1,.207.68h-.923a.557.557,0,0,0-.194-.452.826.826,0,0,0-.546-.161.886.886,0,0,0-.526.135.418.418,0,0,0-.188.356.409.409,0,0,0,.22.347,2.523,2.523,0,0,0,.645.262,2.854,2.854,0,0,1,1.147.555,1.077,1.077,0,0,1,.36.826,1,1,0,0,1-.44.862,2.007,2.007,0,0,1-1.184.313,2.4,2.4,0,0,1-.943-.179,1.478,1.478,0,0,1-.645-.49,1.208,1.208,0,0,1-.223-.721h.926q0,.7.886.7a.9.9,0,0,0,.514-.127A.4.4,0,0,0,775.58,196.7Z" transform="translate(-734.948 -184.167)"/>
    <path id="Path_9725" data-name="Path 9725" class="cls-2" d="M862.2,197.363v1.492h-.923v-4.234h1.747a2.122,2.122,0,0,1,.887.174,1.343,1.343,0,0,1,.589.5,1.329,1.329,0,0,1,.206.732,1.188,1.188,0,0,1-.451.982,1.948,1.948,0,0,1-1.247.359Zm0-.707h.824a.842.842,0,0,0,.558-.163.575.575,0,0,0,.192-.465.677.677,0,0,0-.194-.5.747.747,0,0,0-.535-.2h-.844Z" transform="translate(-818.784 -185.21)"/>
    <path id="Path_9726" data-name="Path 9726" class="cls-2" d="M950.563,195.769a2.437,2.437,0,0,1-.234,1.1,1.7,1.7,0,0,1-.669.729,2.078,2.078,0,0,1-1.992,0,1.716,1.716,0,0,1-.676-.723,2.372,2.372,0,0,1-.243-1.08v-.209a2.42,2.42,0,0,1,.239-1.1,1.71,1.71,0,0,1,.673-.73,2.075,2.075,0,0,1,1.99,0,1.713,1.713,0,0,1,.673.73,2.421,2.421,0,0,1,.238,1.1Zm-.935-.192a1.707,1.707,0,0,0-.252-1.012.921.921,0,0,0-1.436-.006,1.687,1.687,0,0,0-.255,1v.206a1.727,1.727,0,0,0,.252,1.006.913.913,0,0,0,1.439.013,1.717,1.717,0,0,0,.252-1Z" transform="translate(-900.011 -184.145)"/>
    <path id="Path_9727" data-name="Path 9727" class="cls-2" d="M1047.1,198.864h-.923l-1.8-2.786v2.786h-.923V194.63h.923l1.8,2.792V194.63h.92Z" transform="translate(-991.922 -185.219)"/>
    <path id="Path_9728" data-name="Path 9728" class="cls-2" d="M1141.513,198.864h-.923V194.63h.923Z" transform="translate(-1084.232 -185.219)"/>
    <path id="Path_9729" data-name="Path 9729" class="cls-2" d="M1182.75,198.864V194.63h1.568a2.134,2.134,0,0,1,1.236.3,1,1,0,0,1,.421.865.915.915,0,0,1-.169.546.966.966,0,0,1-.47.347.953.953,0,0,1,.543.329.934.934,0,0,1,.2.6,1.091,1.091,0,0,1-.412.925,1.931,1.931,0,0,1-1.175.32Zm.923-2.46h.683q.7-.012.7-.526a.474.474,0,0,0-.177-.414.977.977,0,0,0-.558-.127h-.645Zm0,.616v1.141h.79a.786.786,0,0,0,.509-.149.491.491,0,0,0,.183-.405q0-.582-.637-.591Z" transform="translate(-1124.299 -185.219)"/>
    <path id="Path_9730" data-name="Path 9730" class="cls-2" d="M1271.013,198.163h1.959v.7h-2.881V194.63h.923Z" transform="translate(-1207.305 -185.219)"/>
    <path id="Path_9731" data-name="Path 9731" class="cls-2" d="M1347.844,197.031h-1.771v1.134h2.078v.7h-3V194.63h3v.707h-2.073v1.009h1.771Z" transform="translate(-1278.64 -185.219)"/>
    <path id="Path_9732" data-name="Path 9732" class="cls-2" d="M1463.534,197.031h-1.771v1.134h2.079v.7h-3V194.63h3v.707h-2.073v1.009h1.771Z" transform="translate(-1388.588 -185.219)"/>
    <path id="Path_9733" data-name="Path 9733" class="cls-2" d="M1542.211,198.864h-.923l-1.8-2.786v2.786h-.923V194.63h.923l1.8,2.792V194.63h.92Z" transform="translate(-1462.46 -185.219)"/>
  </g>
</svg>
