<svg xmlns="http://www.w3.org/2000/svg" viewBox="0 0 48.8 95.17"><defs><style>.cls-1{fill:#fff;}</style></defs><title>download_icn</title><g id="Capa_2" data-name="Capa 2"><g id="Capa_1-2" data-name="Capa 1"><path class="cls-1" d="M0,89.17a6,6,0,0,0,6,6H42.8a6,6,0,0,0,6-6V14.09H0Zm24.4,2.38a4.3,4.3,0,1,1,4.29-4.29A4.3,4.3,0,0,1,24.4,91.55ZM15.8,48.06a1.51,1.51,0,0,1,2.12,0l5,5V38.5a1.5,1.5,0,0,1,3,0V53.05l5-5a1.49,1.49,0,0,1,2.12,0,1.51,1.51,0,0,1,0,2.12l-7.54,7.54h0a1.39,1.39,0,0,1-.48.32h0a1.41,1.41,0,0,1-.54.11h0a1.5,1.5,0,0,1-.55-.11h0a1.41,1.41,0,0,1-.5-.33l-7.54-7.54A1.5,1.5,0,0,1,15.8,48.06ZM42.8,0H6A6,6,0,0,0,0,6v6.08H48.8V6A6,6,0,0,0,42.8,0ZM13.88,7.45a1.36,1.36,0,1,1,1.37-1.36A1.36,1.36,0,0,1,13.88,7.45Zm16.58-.36H18.34a1,1,0,0,1,0-2H30.46a1,1,0,0,1,0,2Z"/></g></g></svg>