<svg xmlns="http://www.w3.org/2000/svg" viewBox="0 0 80.21 80.21"><defs><style>.cls-1{fill:#3c5a99;}.cls-2{fill:#fff;fill-rule:evenodd;}</style></defs><title>fb_circle</title><g id="Capa_2" data-name="Capa 2"><g id="Design"><circle class="cls-1" cx="40.11" cy="40.11" r="40.11" transform="translate(-8.14 69.93) rotate(-76.72)"/><path class="cls-2" d="M33.46,40.56V65.13a.64.64,0,0,0,.64.64h9.12a.64.64,0,0,0,.64-.64v-25h6.62a.62.62,0,0,0,.63-.58l.64-7.53a.64.64,0,0,0-.64-.69H43.86V26a2.27,2.27,0,0,1,2.27-2.26h5.09a.64.64,0,0,0,.64-.64V15.6a.63.63,0,0,0-.64-.64H42.61a9.15,9.15,0,0,0-9.15,9.15v7.25H28.9a.64.64,0,0,0-.64.64v7.52a.64.64,0,0,0,.64.64h4.56Z"/></g></g></svg>