<svg xmlns="http://www.w3.org/2000/svg" xmlns:xlink="http://www.w3.org/1999/xlink" viewBox="0 0 80.22 80.21"><defs><style>.cls-1{fill:url(#linear-gradient);}.cls-2{fill:#fff;}</style><linearGradient id="linear-gradient" x1="5.91" y1="74.31" x2="92.58" y2="-12.37" gradientTransform="translate(18.4 -12.3) rotate(22.5)" gradientUnits="userSpaceOnUse"><stop offset="0" stop-color="#fbe18a"/><stop offset="0.21" stop-color="#fcbb45"/><stop offset="0.38" stop-color="#f75274"/><stop offset="0.52" stop-color="#d53692"/><stop offset="0.74" stop-color="#8f39ce"/><stop offset="1" stop-color="#5b4fe9"/></linearGradient></defs><title>ig_circle</title><g id="Capa_2" data-name="Capa 2"><g id="Design"><circle class="cls-1" cx="40.11" cy="40.11" r="40.11" transform="translate(-12.3 18.4) rotate(-22.5)"/><circle class="cls-2" cx="54.31" cy="26.14" r="3.12"/><path class="cls-2" d="M40.45,27A13.09,13.09,0,1,0,53.54,40.11,13.11,13.11,0,0,0,40.45,27Zm0,21.47a8.39,8.39,0,1,1,8.39-8.38A8.39,8.39,0,0,1,40.45,48.49Z"/><path class="cls-2" d="M50.84,66.68H29.63a16,16,0,0,1-16-16V29.5a16,16,0,0,1,16-16H50.84a16,16,0,0,1,16,16V50.72A16,16,0,0,1,50.84,66.68ZM29.63,18.53a11,11,0,0,0-11,11V50.72a11,11,0,0,0,11,11H50.84a11,11,0,0,0,11-11V29.5a11,11,0,0,0-11-11Z"/></g></g></svg>