<svg xmlns="http://www.w3.org/2000/svg" viewBox="0 0 919.8 258.03"><defs><style>.cls-1{isolation:isolate;}.cls-2{fill:#c80000;}.cls-2,.cls-4{mix-blend-mode:multiply;}.cls-3{fill:#fff;}</style></defs><title>logo</title><g class="cls-1"><g id="Capa_1" data-name="Capa 1"><path class="cls-2" d="M87.91,197.57s22.58.37,5.12,40.65c0,0,44.06-18.5,47.87-39.71,0,0,84.63-7.27,94.93-80.63s-52.33-98.56-94-98S15.61,37.58,20.18,122.92C23.91,192.57,87.91,197.57,87.91,197.57Z"/><path class="cls-3" d="M116.52,60.2a46,46,0,0,0-28.17,58.58h0L113,188.89l19.58-6.9L120.75,148.3a46,46,0,1,0-4.23-88.1Zm23.68,67.26a25.27,25.27,0,1,1,15.45-32.23A25.26,25.26,0,0,1,140.2,127.46Z"/><path class="cls-3" d="M144.41,37a22.43,22.43,0,0,1,15.89,1,22.68,22.68,0,0,1,10.77,9.79,48.73,48.73,0,0,1,6.38,5.51,25.88,25.88,0,0,0-15.19-18.49c-8.89-3.93-18.63-2.75-25.47,2.26A34.57,34.57,0,0,1,144.41,37Z"/><path class="cls-3" d="M142,44.09a20.24,20.24,0,0,1,25,10.15c1.8,1.41,4.32,2.58,5.78,4.15a23.55,23.55,0,0,0-36.64-14.75A30.91,30.91,0,0,1,142,44.09Z"/><path class="cls-3" d="M141.87,50.81a14.48,14.48,0,0,1,18.67,7.54c1.36,1,3.62,1.39,4.79,2.54a17.2,17.2,0,0,0-27.47-11.07C139.5,49.79,140.18,50.6,141.87,50.81Z"/><g class="cls-4"><path d="M327,103.77c0,28-17.4,46-44.43,46a52,52,0,0,1-12.89-1.4l-4.82,27.34a75.22,75.22,0,0,1-11.65.93,70.45,70.45,0,0,1-11.5-.93l17.09-97.09a72.91,72.91,0,0,1,32.63-7.3C312.35,71.31,327,82.18,327,103.77Zm-23.77,3.42c0-9.63-5-15.69-15.07-15.69a32.79,32.79,0,0,0-8.85,1.25L273,128.48c3.27,1.08,6.37,1.24,10.41,1.24C295.26,129.72,303.18,120.4,303.18,107.19Z"/><path d="M410.52,100.05l-8.23,47.07a77.26,77.26,0,0,1-11.81.93,71.79,71.79,0,0,1-11.49-.93l7.3-41c1.86-10.26-2.48-14.3-9.79-14.3a22.34,22.34,0,0,0-11.34,2.64L365,94.3l-9.32,52.82a70.54,70.54,0,0,1-11.5.93,73.78,73.78,0,0,1-11.65-.93L350.4,45.36a73.91,73.91,0,0,1,11.66-.93,59.83,59.83,0,0,1,11.49.93l-5,27.81a45.22,45.22,0,0,1,13.83-2.33C404.47,70.84,413.48,83.58,410.52,100.05Z"/><path d="M420.15,117.14c0-28.12,16.78-46.45,41.64-46.45,21.75,0,34.33,12.58,34.33,32.93,0,27.65-16.31,46.14-41.48,46.14C433.05,149.76,420.15,137.18,420.15,117.14Zm52.67-11.5c0-9.63-4-15.54-12.59-15.54-11,0-16.62,11.5-16.77,24.39,0,9.33,4,16,12.89,16C467.22,130.5,472.82,119,472.82,105.64Z"/><path d="M580.32,95.23a39,39,0,0,1-.63,7.15l-7.92,44.74a77.23,77.23,0,0,1-11.8.93,68.41,68.41,0,0,1-11.34-.93l7.14-41a19.73,19.73,0,0,0,.47-4.35c0-7-3.89-10-10.72-10a30.51,30.51,0,0,0-11.19,1.71L525,147.12a77.23,77.23,0,0,1-11.8.93,68.62,68.62,0,0,1-11.35-.93l12-68.51c7.14-3.57,19.26-7.77,35.26-7.77C571.15,70.84,580.32,80.78,580.32,95.23Z"/><path d="M656.43,139.19c-6.83,5.75-18,10.57-31.84,10.57-21.6,0-35-10.72-35-32.78,0-26.72,17.55-45.67,41.63-45.67,19.26,0,30.14,9.47,30.14,23.14,0,18-16.63,24.08-32.47,24.08a62.67,62.67,0,0,1-16-2c0,11.34,5,15.54,15.69,15.54,7.76,0,13.51-3.11,19.26-7.46A16.8,16.8,0,0,1,656.43,139.19Zm-42.09-35.88a67.36,67.36,0,0,0,13,1.71c7.3,0,11.49-3.26,11.49-8.86,0-4.19-3.26-7.61-9.16-7.61C621.64,88.55,616.67,94.3,614.34,103.31Z"/><path d="M747.47,78.61l-12.28,69.44a46.22,46.22,0,0,1-16,0l-.93-8.08c-6.83,6.68-14.14,9.79-23.46,9.79-16.31,0-26.56-11.19-26.56-29.67,0-29.36,20.82-48.78,48.62-48.78C731.62,71.31,740.94,74.57,747.47,78.61ZM716.71,121l5-28.59a29.32,29.32,0,0,0-8.54-1.24c-11.66,0-21.13,9.63-21.13,25.32,0,9.17,4.35,13.52,10.87,13.52C707.85,130,713,127.85,716.71,121Z"/><path d="M753.83,133.6a53.23,53.23,0,0,1,.94-9.16l14-79.08a65.6,65.6,0,0,1,12-.93,52.14,52.14,0,0,1,11.18.93l-13.67,77.06a10.86,10.86,0,0,0-.31,2.33,3.23,3.23,0,0,0,3.58,3.42c1.55,0,2.33-.32,3.88-1.71,5,4.19,6.84,9.94,6.68,17.08-4,3.11-10.72,5.75-18.95,5.75C760.05,149.29,753.83,143.23,753.83,133.6Z"/><path d="M799.51,117.14c0-28.12,16.77-46.45,41.63-46.45,21.75,0,34.33,12.58,34.33,32.93,0,27.65-16.31,46.14-41.48,46.14C812.4,149.76,799.51,137.18,799.51,117.14Zm52.66-11.5c0-9.63-4-15.54-12.58-15.54-11,0-16.63,11.5-16.78,24.39,0,9.33,4,16,12.89,16C846.58,130.5,852.17,119,852.17,105.64Z"/></g><path d="M887.82,126.59H889l.13,0a11.5,11.5,0,0,1-.6,23,11,11,0,0,1-4.7-1A11.32,11.32,0,0,1,877,139.5c0-.27-.06-.54-.09-.81v-1.21l0-.14a11.19,11.19,0,0,1,1.31-4.6,11.35,11.35,0,0,1,8.75-6.06C887.28,126.64,887.55,126.62,887.82,126.59Zm.61,20.66a9.17,9.17,0,1,0-9.17-9.17A9.19,9.19,0,0,0,888.43,147.25Z"/><path d="M883.39,131.82h.1c1.79,0,3.58,0,5.36,0a5.73,5.73,0,0,1,2,.36,2.71,2.71,0,0,1,1.88,2.56,3.58,3.58,0,0,1-.33,2,3.07,3.07,0,0,1-1.75,1.43l-.15,0v0a2.31,2.31,0,0,1,1.08.65,5.18,5.18,0,0,1,.89,1.3c.6,1.19,1.18,2.38,1.77,3.57l0,.09h-3.13a.25.25,0,0,1-.25-.16c-.48-1-1-2-1.45-2.95A6,6,0,0,0,889,140a1.56,1.56,0,0,0-1.17-.68c-.42,0-.86,0-1.3,0v4.51h-3.1Zm3.1,5.33a9.62,9.62,0,0,0,2.21-.12,1.08,1.08,0,0,0,.85-.91,3,3,0,0,0,0-.84,1.13,1.13,0,0,0-1.1-1.15c-.65-.07-1.31,0-2-.06l0,0Z"/><path class="cls-3" d="M886.49,137.15v-3.06l0,0c.66,0,1.32,0,2,.06a1.13,1.13,0,0,1,1.1,1.15,3,3,0,0,1,0,.84,1.08,1.08,0,0,1-.85.91A9.62,9.62,0,0,1,886.49,137.15Z"/></g></g></svg>