<svg xmlns="http://www.w3.org/2000/svg" viewBox="0 0 59.98 95"><defs><style>.cls-1{fill:#fff;}</style></defs><title>phonoealo_icn</title><g id="Capa_2" data-name="Capa 2"><g id="Capa_1-2" data-name="Capa 1"><circle class="cls-1" cx="27.08" cy="35.5" r="13.4"/><path class="cls-1" d="M48.38,37.7l-2.5,10.1a2.61,2.61,0,0,1-1.1,1.6,36.32,36.32,0,0,1,2.3,5.2c-1.4-.2-3-.6-4.4-.9a35.26,35.26,0,0,0-6.9-1.1H19c-4.4,0-7.8,2.2-10.1,6.5l-.5,1A61.67,61.67,0,0,0,3,71.8c-.9,3.4-2.8,13-2.9,13.5a5.14,5.14,0,0,0,4,6,3.4,3.4,0,0,0,1,.1,5.13,5.13,0,0,0,5-4.1c0-.1,1.9-9.7,2.7-12.8a34.29,34.29,0,0,1,2.1-5l-.7,22.2a3.18,3.18,0,0,0,3.2,3.3h18.9a3.18,3.18,0,0,0,3.2-3.3l-.8-28.3a9.36,9.36,0,0,1,1.6.4c3.7.9,7.9,1.8,11.8,1a7.18,7.18,0,0,0,5.1-4c2.3-5.2-2-14.1-6-20.7A4.15,4.15,0,0,0,48.38,37.7Z"/><path class="cls-1" d="M41.08,47.8l1.8.4a1.07,1.07,0,0,0,1.3-.8L48,32a1.07,1.07,0,0,0-.8-1.3l-1.8-.4a1.07,1.07,0,0,0-1.3.8l-3.8,15.4A1.29,1.29,0,0,0,41.08,47.8Z"/><path class="cls-1" d="M53.88,0H40.48a6.12,6.12,0,0,0-6.1,6.1v8a6.12,6.12,0,0,0,6.1,6.1h2a12.25,12.25,0,0,1-.8,4.2,1.57,1.57,0,0,0,.5,1.9,1.5,1.5,0,0,0,1.1.4,1.88,1.88,0,0,0,.8-.2,24,24,0,0,0,6.7-6.2h3.1A6.12,6.12,0,0,0,60,14.2v-8A6.21,6.21,0,0,0,53.88,0Zm-1.1,14.3H41.48a1.3,1.3,0,1,1,0-2.6h11.3a1.3,1.3,0,0,1,0,2.6Zm0-6.1H41.48a1.3,1.3,0,1,1,0-2.6h11.3a1.3,1.3,0,0,1,0,2.6Z"/></g></g></svg>