<svg xmlns="http://www.w3.org/2000/svg" viewBox="0 0 97.8 97.7"><defs><style>.cls-1{fill:#fff;}</style></defs><title>recarga_icn</title><g id="Capa_2" data-name="Capa 2"><g id="Capa_1-2" data-name="Capa 1"><path class="cls-1" d="M57.7,42.9H55.3A17.54,17.54,0,0,1,43.5,47c-4.8,0-9.2-1.6-11.8-4.1H30c-8.7,0-15.7,5.3-15.7,11.8H72.7C72.6,48.2,65.9,42.9,57.7,42.9Z"/><path class="cls-1" d="M43.4,8.8A17.6,17.6,0,1,0,61,26.4,17.63,17.63,0,0,0,43.4,8.8Zm0,31.2A13.61,13.61,0,0,1,29.8,26.4a16.56,16.56,0,0,1,.4-3.3A18.1,18.1,0,0,0,38,25a12.61,12.61,0,0,0,7.4-2.3c.3-.2,6.3-4.5,11-.2a12.26,12.26,0,0,1,.6,3.9A13.55,13.55,0,0,1,43.4,40Z"/><path class="cls-1" d="M84.7,95.7H75a4.84,4.84,0,0,0,1-2.9V61.4a4.87,4.87,0,0,0-4.8-4.8H15.5a4.87,4.87,0,0,0-4.8,4.8V92.8a4.84,4.84,0,0,0,1,2.9H.9a.9.9,0,0,0-.9.9v.2a.9.9,0,0,0,.9.9H84.7a.9.9,0,0,0,.9-.9v-.1A.92.92,0,0,0,84.7,95.7ZM43.4,82.2a5.4,5.4,0,1,1,5.4-5.4A5.38,5.38,0,0,1,43.4,82.2Z"/><path class="cls-1" d="M97.3,12.1a16.1,16.1,0,0,0-31.2,8,16,16,0,0,0,6.8,9.5L68.6,36l17-4.4A16,16,0,0,0,97.3,12.1ZM83.5,23.4A15.28,15.28,0,0,1,74.9,12c-.2-2.2,3.5-4,3.5-4l2.3,4s-2.5,1.3-2.2,2.1a12.93,12.93,0,0,0,4.2,5.4c.8.3,2.5-1.6,2.5-1.6l3.3,3.2C88.7,21,85.9,24.5,83.5,23.4Z"/></g></g></svg>