<svg xmlns="http://www.w3.org/2000/svg" viewBox="0 0 80.21 80.21"><defs><style>.cls-1{fill:#00a8ef;}.cls-2{fill:#fdfdfd;}</style></defs><title>sk_circle</title><g id="Capa_2" data-name="Capa 2"><g id="Design"><circle class="cls-1" cx="40.11" cy="40.11" r="40.11" transform="translate(-7.55 70.87) rotate(-77.84)"/><path class="cls-2" d="M62.15,40.38A14,14,0,0,1,62,41.83a10.36,10.36,0,0,0,0,2.55,38.38,38.38,0,0,0,.69,4.25,11.46,11.46,0,0,1-4.51,11.82,12.25,12.25,0,0,1-12.7,1.79,4.89,4.89,0,0,0-2.38-.36A21.63,21.63,0,0,1,18.82,37.47a5.25,5.25,0,0,0-.44-2.87A12.56,12.56,0,0,1,35.19,18.17a5.64,5.64,0,0,0,3.25.54c11.13-1.29,22,7.31,23.43,18.45.08.68.18,1.35.25,2A11.82,11.82,0,0,1,62.15,40.38Z"/><path class="cls-1" d="M38,25.3a11.77,11.77,0,0,0-6.39,1.95,7.3,7.3,0,0,0,.31,12.45,23.2,23.2,0,0,0,6.12,2.2c2,.5,4.09.7,6,1.62a3.24,3.24,0,0,1,2.17,3,3.43,3.43,0,0,1-2.08,3.05,7.14,7.14,0,0,1-10.23-3.21c-.13-.27-.25-.55-.4-.81A3.16,3.16,0,0,0,29.31,44a3,3,0,0,0-1.51,3.84,9,9,0,0,0,5.88,6.25,18.92,18.92,0,0,0,13.2,0,9.78,9.78,0,0,0,3.77-2.44,7.92,7.92,0,0,0-2.21-12.83,19.51,19.51,0,0,0-3.77-1.36c-2.1-.51-4.19-1-6.28-1.56a7.39,7.39,0,0,1-2.71-1.18A2.18,2.18,0,0,1,35.6,31a3.78,3.78,0,0,1,1.22-.72c3.51-1,6.86-.81,8.62,2.72a8.07,8.07,0,0,0,.55.88,2.92,2.92,0,0,0,3.71,1.23,3,3,0,0,0,1.85-3.35,6,6,0,0,0-2.36-3.9,11.2,11.2,0,0,0-7.29-2.57s-2.62,0-3.89,0"/></g></g></svg>