<svg xmlns="http://www.w3.org/2000/svg" viewBox="0 0 80.21 80.21"><defs><style>.cls-1{fill:#3cf;}.cls-2,.cls-3{fill:#fff;}.cls-3{fill-rule:evenodd;}</style></defs><title>tw_circle</title><g id="Capa_2" data-name="Capa 2"><g id="Design"><circle class="cls-1" cx="40.11" cy="40.11" r="40.11" transform="translate(-7.55 70.87) rotate(-77.84)"/><path class="cls-2" d="M64.47,24.64a20.18,20.18,0,0,1-5,1.42c.8-.13,2-1.59,2.46-2.17a9.35,9.35,0,0,0,1.66-3c0-.09.08-.2,0-.26a.29.29,0,0,0-.26,0,25.67,25.67,0,0,1-5.93,2.27.4.4,0,0,1-.41-.11,4.35,4.35,0,0,0-.52-.53,10.46,10.46,0,0,0-2.87-1.76,10.19,10.19,0,0,0-4.4-.71,10.66,10.66,0,0,0-7.55,3.94,10.2,10.2,0,0,0-2,4A10.86,10.86,0,0,0,39.53,32c0,.24,0,.27-.21.24C31.18,31,24.43,28.12,19,21.87c-.24-.27-.37-.27-.57,0-2.39,3.59-1.23,9.36,1.76,12.2a14.81,14.81,0,0,0,1.26,1.1,10.34,10.34,0,0,1-3.93-1.1c-.24-.15-.36-.06-.38.2a6.7,6.7,0,0,0,.06,1.17A10.46,10.46,0,0,0,23.6,43.8a6.42,6.42,0,0,0,1.31.4,12,12,0,0,1-3.86.12c-.28-.06-.39.08-.28.35,1.7,4.63,5.36,6,8.1,6.79.37.06.73.06,1.1.15l-.06.06c-.91,1.39-4.07,2.42-5.53,2.93A19.73,19.73,0,0,1,16,55.68c-.45-.07-.54-.06-.66,0s0,.18.12.3c.58.38,1.16.71,1.75,1a28,28,0,0,0,5.62,2.24c10.09,2.79,21.46.74,29-6.79,5.95-5.91,8-14.06,8-22.23,0-.32.38-.49.61-.66a19.91,19.91,0,0,0,3.93-4.11,1.19,1.19,0,0,0,.24-.79v0C64.65,24.51,64.67,24.55,64.47,24.64Z"/><path class="cls-3" d="M29.92,60.53Z"/><path class="cls-3" d="M29.92,60.53Z"/><path class="cls-3" d="M31.59,60.58c0-.09.87,0,0,0C31.59,60.53,31.69,60.58,31.59,60.58Z"/><path class="cls-3" d="M49.06,20.08a.2.2,0,0,1-.21,0Z"/></g></g></svg>